<svg width="97" height="69" viewBox="0 0 97 69" fill="none" xmlns="http://www.w3.org/2000/svg">
<path d="M27.7375 57.5376C26.5504 57.5393 25.4041 57.1043 24.5171 56.3154L-0.0239258 34.5001L25.8799 11.4723C26.8455 10.6463 28.0966 10.2322 29.3643 10.3191C30.6319 10.4059 31.8149 10.9868 32.6587 11.9368C33.5026 12.8867 33.9399 14.1299 33.8767 15.399C33.8135 16.6681 33.2548 17.8616 32.3207 18.723L14.5746 34.5001L30.9579 49.0598C31.6939 49.7129 32.2139 50.5744 32.4488 51.53C32.6836 52.4856 32.6223 53.49 32.2728 54.4099C31.9234 55.3297 31.3024 56.1216 30.4924 56.6802C29.6823 57.2389 28.7215 57.5379 27.7375 57.5376ZM71.1207 57.5279L97.0246 34.5001L72.4836 12.6848C71.5221 11.8307 70.2606 11.3935 68.9768 11.4695C67.693 11.5454 66.4919 12.1283 65.6378 13.0898C64.7837 14.0513 64.3465 15.3127 64.4225 16.5965C64.4984 17.8804 65.0813 19.0814 66.0428 19.9355L82.4261 34.5001L64.6799 50.2723C63.7178 51.1264 63.1343 52.3277 63.0579 53.612C62.9815 54.8963 63.4184 56.1583 64.2725 57.1205C65.1266 58.0826 66.328 58.6661 67.6123 58.7425C68.8965 58.8189 70.1586 58.382 71.1207 57.5279ZM48.4324 64.4003L58.1324 6.20035C58.2565 5.56428 58.2518 4.90982 58.1186 4.2756C57.9855 3.64138 57.7266 3.04027 57.3572 2.50779C56.9879 1.97531 56.5156 1.52225 55.9682 1.17537C55.4208 0.828485 54.8094 0.594822 54.1702 0.488179C53.531 0.381536 52.8769 0.404076 52.2466 0.554467C51.6162 0.704858 51.0224 0.980051 50.5002 1.36379C49.978 1.74753 49.5379 2.23203 49.2061 2.78867C48.8743 3.34532 48.6574 3.96282 48.5682 4.6047L38.8682 62.8047C38.7442 63.4408 38.7489 64.0952 38.882 64.7294C39.0152 65.3637 39.2741 65.9648 39.6434 66.4972C40.0128 67.0297 40.4851 67.4828 41.0325 67.8297C41.5799 68.1766 42.1912 68.4102 42.8304 68.5169C43.4696 68.6235 44.1237 68.601 44.7541 68.4506C45.3844 68.3002 45.9783 68.025 46.5005 67.6413C47.0227 67.2575 47.4627 66.773 47.7945 66.2164C48.1264 65.6597 48.3433 65.0422 48.4324 64.4003Z" fill="#8730A5"/>
</svg>
