<svg width="79" height="70" viewBox="0 0 79 70" fill="none" xmlns="http://www.w3.org/2000/svg">
<path d="M60.5909 45.9431C36.105 39.197 28.1598 24.6338 27.1248 12.376C26.8713 9.37323 26.7445 7.87183 28.1602 5.24946C28.7652 4.12888 30.42 2.32842 31.4857 1.63133C33.9797 0 36.292 0 40.9167 0H61.9149C68.4617 0 71.7352 0 74.1399 1.4736C75.4854 2.29816 76.6167 3.42946 77.4413 4.77501C78.9149 7.17971 78.9149 10.4531 78.9149 17V30.5245C78.9149 37.641 78.9149 41.1992 76.9126 43.8668C75.9107 45.2018 74.131 46.5574 72.5779 47.1688C69.4743 48.3906 66.5132 47.5747 60.5909 45.9431Z" fill="#AB0071"/>
<path d="M53.1106 52.8611C13.1367 46.601 1.51191 30.0329 0.707424 16.7219C0.572342 14.4868 0.5048 13.3693 1.93883 10.8088C2.51278 9.78403 4.2714 7.91592 5.25968 7.2812C7.72895 5.69531 9.76298 5.69531 13.831 5.69531H54.1672C60.7141 5.69531 63.9875 5.69531 66.3922 7.16891C67.7378 7.99347 68.8691 9.12477 69.6936 10.4703C71.1672 12.875 71.1672 16.1485 71.1672 22.6953V36.6546C71.1672 43.6295 71.1672 47.117 69.3971 49.6815C68.4625 51.0355 66.9884 52.2967 65.5061 53.0106C62.6986 54.3626 59.5026 53.8621 53.1106 52.8611Z" fill="#4C7CF7" fill-opacity="0.38"/>
<path d="M60.4191 65.98C35.1784 57.7462 27.6015 39.7293 27.0387 25.0694C26.8986 21.42 26.8286 19.5954 28.2782 17.0918C28.9378 15.9527 30.4802 14.3499 31.5932 13.6471C34.0393 12.1026 36.5205 12.1026 41.4829 12.1026H61.9149C68.4617 12.1026 71.7352 12.1026 74.1399 13.5762C75.4854 14.4007 76.6167 15.532 77.4413 16.8776C78.9149 19.2823 78.9149 22.5557 78.9149 29.1026V50.8783C78.9149 58.0653 78.9149 61.6588 76.8139 64.3651C75.7807 65.696 73.8808 67.0746 72.2951 67.6441C69.0707 68.8022 66.1869 67.8615 60.4191 65.98Z" fill="#E5E5E5" fill-opacity="0.63"/>
</svg>
