<svg width="27" height="26" viewBox="0 0 27 26" fill="none" xmlns="http://www.w3.org/2000/svg">
<path d="M25.3594 0H1.64062C1.07021 0 0.609375 0.46084 0.609375 1.03125V24.75C0.609375 25.3204 1.07021 25.7812 1.64062 25.7812H25.3594C25.9298 25.7812 26.3906 25.3204 26.3906 24.75V1.03125C26.3906 0.46084 25.9298 0 25.3594 0ZM22.3816 7.5249H20.3224C18.7078 7.5249 18.3952 8.29189 18.3952 9.41982V11.9045H22.2495L21.7468 15.7942H18.3952V25.7812H14.3766V15.7975H11.0153V11.9045H14.3766V9.03633C14.3766 5.70732 16.4101 3.89297 19.3813 3.89297C20.8058 3.89297 22.0271 3.99932 22.3849 4.04766V7.5249H22.3816Z" fill="white"/>
</svg>
