<svg width="77" height="77" viewBox="0 0 77 77" fill="none" xmlns="http://www.w3.org/2000/svg">
<path d="M20.1175 4.26659C23.3569 1.81328 27.3115 0.490081 31.375 0.49984C32.7784 0.46837 34.167 0.791387 35.4124 1.439C36.6578 2.08662 37.7198 3.03791 38.5 4.20484C39.2802 3.03791 40.3422 2.08662 41.5876 1.439C42.833 0.791387 44.2216 0.46837 45.625 0.49984C49.6885 0.490081 53.6431 1.81328 56.8825 4.26659C59.3763 6.20459 61.3 8.88834 61.9792 12.1326C63.5373 12.2513 64.9622 12.8973 66.1592 13.8711C67.9737 15.3436 69.2943 17.5523 70.1255 19.8893C71.427 23.5231 71.7785 28.1543 70.4295 32.0968C70.7715 32.2583 71.1087 32.4483 71.4365 32.6668C72.7428 33.5361 73.7355 34.7806 74.467 36.2483C75.9062 39.1221 76.5 43.1311 76.5 47.9998C76.5 53.4196 74.4338 57.0581 71.8118 59.3048C70.3618 60.548 68.6507 61.449 66.8053 61.9411C66.3302 64.5916 65.0003 67.6601 62.915 70.2631C60.2075 73.6593 56.0085 76.4998 50.375 76.4998C45.91 76.4998 42.357 74.0298 40.0485 71.6073C39.4966 71.0289 38.9795 70.4183 38.5 69.7786C38.0205 70.4183 37.5035 71.029 36.9515 71.6073C34.643 74.0298 31.0947 76.4998 26.625 76.4998C20.9915 76.4998 16.7973 73.6593 14.085 70.2631C12.1364 67.8432 10.8017 64.9881 10.1947 61.9411C8.34928 61.449 6.63819 60.548 5.18825 59.3048C2.56625 57.0581 0.5 53.4148 0.5 47.9998C0.5 43.1311 1.0985 39.1173 2.533 36.2483C3.2645 34.7806 4.25725 33.5408 5.5635 32.6621C5.8843 32.4497 6.22096 32.2623 6.5705 32.1016C5.2215 28.1496 5.573 23.5231 6.8745 19.8893C7.70575 17.5523 9.02625 15.3436 10.8407 13.8711C12.0378 12.8973 13.4628 12.2561 15.0208 12.1326C15.7048 8.88834 17.6285 6.20459 20.1222 4.26659H20.1175ZM36.125 12.3748V12.3273L36.1155 12.0898C36.0456 10.8515 35.7993 9.62954 35.384 8.46084C35.0884 7.57858 34.585 6.78032 33.9162 6.13334C33.2147 5.52239 32.3043 5.20589 31.375 5.24984C28.368 5.23953 25.4396 6.21009 23.034 8.01434C20.83 9.72909 19.5 12.0518 19.5 14.7498C19.4997 15.126 19.4101 15.4966 19.2385 15.8314C19.067 16.1661 18.8184 16.4553 18.5132 16.6751C18.208 16.8949 17.855 17.0392 17.4831 17.0959C17.1113 17.1526 16.7313 17.1202 16.3745 17.0013C15.4815 16.7068 14.6835 16.8731 13.8333 17.5571C12.9023 18.3171 11.995 19.6661 11.3442 21.4853C10.019 25.1998 10.1567 29.6981 11.976 32.4341C12.2358 32.8237 12.3746 33.2815 12.375 33.7498H15.9375C18.772 33.7498 21.4904 34.8758 23.4947 36.8801C25.499 38.8844 26.625 41.6028 26.625 44.4373V46.0286C28.2096 46.5888 29.5452 47.6913 30.3956 49.141C31.2461 50.5907 31.5566 52.2944 31.2724 53.951C30.9882 55.6075 30.1275 57.1102 28.8424 58.1936C27.5574 59.2769 25.9308 59.8711 24.25 59.8711C22.5692 59.8711 20.9426 59.2769 19.6576 58.1936C18.3725 57.1102 17.5118 55.6075 17.2276 53.951C16.9434 52.2944 17.2539 50.5907 18.1044 49.141C18.9548 47.6913 20.2904 46.5888 21.875 46.0286V44.4373C21.875 41.1598 19.215 38.4998 15.9375 38.4998H7.625C7.34105 38.4994 7.05949 38.4479 6.79375 38.3478L6.7795 38.3763C5.839 40.2526 5.25 43.3686 5.25 47.9998C5.25 52.0801 6.74625 54.3791 8.2805 55.6948C9.92875 57.1103 11.7575 57.4998 12.375 57.4998C13.0049 57.4998 13.609 57.7501 14.0544 58.1955C14.4998 58.6409 14.75 59.2449 14.75 59.8748C14.75 61.6228 15.7 64.6771 17.79 67.2991C19.8277 69.8403 22.7585 71.7498 26.625 71.7498C29.285 71.7498 31.6695 70.2631 33.5125 68.3298C34.4198 67.3798 35.1275 66.3966 35.5882 65.5891C35.798 65.231 35.9775 64.856 36.125 64.4681V26.6248H30.9713C30.411 28.2095 29.3086 29.545 27.8589 30.3955C26.4091 31.2459 24.7054 31.5564 23.0489 31.2722C21.3923 30.988 19.8896 30.1273 18.8063 28.8423C17.7229 27.5572 17.1287 25.9306 17.1287 24.2498C17.1287 22.5691 17.7229 20.9424 18.8063 19.6574C19.8896 18.3724 21.3923 17.5117 23.0489 17.2274C24.7054 16.9432 26.4091 17.2538 27.8589 18.1042C29.3086 18.9546 30.411 20.2902 30.9713 21.8748H36.125V12.3748ZM40.875 59.8701V64.4633C41.0225 64.8512 41.202 65.2262 41.4118 65.5843C41.8773 66.3918 42.5802 67.3751 43.4827 68.3251C45.3305 70.2583 47.7197 71.7451 50.375 71.7451C54.2415 71.7451 57.1722 69.8356 59.21 67.2943C61.3 64.6723 62.25 61.6181 62.25 59.8701C62.25 59.2402 62.5002 58.6361 62.9456 58.1907C63.391 57.7453 63.9951 57.4951 64.625 57.4951C65.2425 57.4951 67.0713 57.1056 68.7195 55.6901C70.2537 54.3743 71.75 52.0753 71.75 47.9951C71.75 43.3638 71.1562 40.2526 70.2205 38.3716C69.9074 37.6712 69.4161 37.0652 68.7955 36.6141C68.2607 36.2722 67.6343 36.1015 67 36.1248C66.5704 36.1246 66.1489 36.0079 65.7804 35.787C65.4119 35.5662 65.1102 35.2496 64.9074 34.8708C64.7047 34.4921 64.6084 34.0655 64.6289 33.6364C64.6495 33.2072 64.786 32.7917 65.024 32.4341C66.848 29.6981 66.981 25.1998 65.6557 21.4853C65.005 19.6661 64.0977 18.3123 63.1667 17.5571C62.3165 16.8731 61.5185 16.7021 60.6255 17.0013C60.2687 17.1202 59.8887 17.1526 59.5169 17.0959C59.145 17.0392 58.792 16.8949 58.4868 16.6751C58.1816 16.4553 57.933 16.1661 57.7615 15.8314C57.5899 15.4966 57.5003 15.126 57.5 14.7498C57.5 12.0518 56.17 9.72909 53.9613 8.01434C51.5569 6.21107 48.6304 5.24056 45.625 5.24984C44.6957 5.20589 43.7853 5.52239 43.0838 6.13334C42.413 6.77957 41.9079 7.57795 41.6112 8.46084C41.159 9.70157 40.9104 11.0072 40.875 12.3273V55.1248H44.4375C47.715 55.1248 50.375 52.4648 50.375 49.1873V40.4711C48.7904 39.9108 47.4548 38.8084 46.6044 37.3587C45.7539 35.909 45.4434 34.2053 45.7276 32.5487C46.0118 30.8922 46.8725 29.3894 48.1576 28.3061C49.4426 27.2228 51.0692 26.6286 52.75 26.6286C54.4308 26.6286 56.0574 27.2228 57.3424 28.3061C58.6275 29.3894 59.4882 30.8922 59.7724 32.5487C60.0566 34.2053 59.7461 35.909 58.8956 37.3587C58.0452 38.8084 56.7096 39.9108 55.125 40.4711V49.1873C55.125 52.0218 53.999 54.7402 51.9947 56.7445C49.9904 58.7488 47.272 59.8748 44.4375 59.8748H40.875V59.8701ZM21.875 24.2498C21.875 24.8797 22.1252 25.4838 22.5706 25.9292C23.016 26.3746 23.6201 26.6248 24.25 26.6248C24.8799 26.6248 25.484 26.3746 25.9294 25.9292C26.3748 25.4838 26.625 24.8797 26.625 24.2498C26.625 23.6199 26.3748 23.0159 25.9294 22.5705C25.484 22.1251 24.8799 21.8748 24.25 21.8748C23.6201 21.8748 23.016 22.1251 22.5706 22.5705C22.1252 23.0159 21.875 23.6199 21.875 24.2498ZM52.75 36.1248C53.3799 36.1248 53.984 35.8746 54.4294 35.4292C54.8748 34.9838 55.125 34.3797 55.125 33.7498C55.125 33.1199 54.8748 32.5159 54.4294 32.0705C53.984 31.6251 53.3799 31.3748 52.75 31.3748C52.1201 31.3748 51.516 31.6251 51.0706 32.0705C50.6252 32.5159 50.375 33.1199 50.375 33.7498C50.375 34.3797 50.6252 34.9838 51.0706 35.4292C51.516 35.8746 52.1201 36.1248 52.75 36.1248ZM24.25 50.3748C23.6201 50.3748 23.016 50.6251 22.5706 51.0705C22.1252 51.5159 21.875 52.1199 21.875 52.7498C21.875 53.3797 22.1252 53.9838 22.5706 54.4292C23.016 54.8746 23.6201 55.1248 24.25 55.1248C24.8799 55.1248 25.484 54.8746 25.9294 54.4292C26.3748 53.9838 26.625 53.3797 26.625 52.7498C26.625 52.1199 26.3748 51.5159 25.9294 51.0705C25.484 50.6251 24.8799 50.3748 24.25 50.3748Z" fill="#8730A5"/>
</svg>
