<svg width="26" height="34" viewBox="0 0 26 34" fill="none" xmlns="http://www.w3.org/2000/svg">
<path d="M12.9945 0.374512C9.55856 0.377151 6.26337 1.63014 3.82864 3.85981C1.39391 6.08947 0.0174845 9.11463 0 12.2745C0 17.0122 2.89011 20.9789 5.00806 23.8702L5.39414 24.3978C7.50137 27.2065 9.76194 29.9153 12.1672 32.5137L13.0055 33.4166L13.8439 32.5137C16.2488 29.9151 18.5093 27.2063 20.6169 24.3978L21.003 23.8601C23.1099 20.9688 26 17.0122 26 12.2745C25.9825 9.11287 24.6046 6.08619 22.1674 3.85623C19.7303 1.62627 16.4323 0.374471 12.9945 0.374512ZM19.1608 22.6934L18.7637 23.2311C16.8664 25.8485 14.3513 28.7804 12.9945 30.2311C11.6928 28.7804 9.12261 25.8485 7.22529 23.2311L6.8392 22.6934C4.88672 20.0151 2.20619 16.3528 2.20619 12.234C2.20619 10.931 2.48524 9.64083 3.0274 8.43707C3.56957 7.2333 4.36423 6.13954 5.36601 5.21822C6.3678 4.29689 7.55709 3.56606 8.86598 3.06745C10.1749 2.56883 11.5777 2.3122 12.9945 2.3122C14.4112 2.3122 15.8141 2.56883 17.123 3.06745C18.4319 3.56606 19.6212 4.29689 20.623 5.21822C21.6247 6.13954 22.4194 7.2333 22.9616 8.43707C23.5037 9.64083 23.7828 10.931 23.7828 12.234C23.7828 16.3934 21.1133 20.0557 19.1608 22.6934Z" fill="#AB0071"/>
</svg>
