<svg width="92" height="92" viewBox="0 0 92 92" fill="none" xmlns="http://www.w3.org/2000/svg">
<path d="M46.0001 91.8333C20.6863 91.8333 0.166748 71.3137 0.166748 46C0.166748 20.6862 20.6863 0.166626 46.0001 0.166626C71.3138 0.166626 91.8334 20.6862 91.8334 46C91.8059 71.3 71.3001 91.8058 46.0001 91.8333ZM9.33342 46.7883C9.43759 56.4782 13.3734 65.7328 20.2806 72.5296C27.1878 79.3263 36.5047 83.1124 46.1951 83.0603C55.8854 83.0082 65.1611 79.1222 71.9948 72.2516C78.8286 65.381 82.6646 56.0846 82.6646 46.3941C82.6646 36.7037 78.8286 27.4072 71.9948 20.5367C65.1611 13.6661 55.8854 9.78008 46.1951 9.72799C36.5047 9.6759 27.1878 13.462 20.2806 20.2587C13.3734 27.0554 9.43759 36.3101 9.33342 46V46.7883ZM36.8334 66.625V25.375L64.3334 46L36.8334 66.625Z" fill="white"/>
</svg>
