<svg width="85" height="79" viewBox="0 0 85 79" fill="none" xmlns="http://www.w3.org/2000/svg">
<path d="M16.25 0.00649953C11.9402 0.00649953 7.80698 1.71855 4.75951 4.76601C1.71205 7.81348 0 11.9467 0 16.2565V55.2565C0 59.5663 1.71205 63.6995 4.75951 66.747C7.80698 69.7945 11.9402 71.5065 16.25 71.5065H44.0765C44.291 70.1025 44.759 68.7115 45.513 67.4115L46.904 65.0065H16.25C13.6641 65.0065 11.1842 63.9793 9.35571 62.1508C7.52723 60.3223 6.5 57.8424 6.5 55.2565V19.5H65V27.261C67.0723 26.4416 69.2724 25.9928 71.5 25.935V16.25C71.5 11.9402 69.7879 7.80698 66.7405 4.75951C63.693 1.71205 59.5598 0 55.25 0H16.25V0.00649953ZM7.046 13C7.71837 11.0982 8.96403 9.45183 10.6113 8.28768C12.2586 7.12353 14.2264 6.49894 16.2435 6.5H55.2435C57.2595 6.50029 59.2259 7.1255 60.8718 8.28956C62.5178 9.45362 63.7625 11.0993 64.4345 13H7.046Z" fill="#8730A5"/>
<path d="M54.7031 37.1149L44.5501 26.9489C43.9371 26.3569 43.1162 26.0293 42.264 26.0367C41.4119 26.0441 40.5968 26.3859 39.9942 26.9885C39.3916 27.5911 39.0498 28.4062 39.0424 29.2584C39.035 30.1105 39.3626 30.9315 39.9546 31.5444L50.6536 42.2499L39.9546 52.9489C39.6442 53.2487 39.3966 53.6074 39.2263 54.0039C39.0559 54.4004 38.9663 54.8269 38.9625 55.2584C38.9588 55.6899 39.041 56.1179 39.2044 56.5173C39.3678 56.9167 39.6092 57.2796 39.9143 57.5847C40.2195 57.8899 40.5823 58.1312 40.9817 58.2946C41.3812 58.458 41.8091 58.5402 42.2406 58.5365C42.6722 58.5327 43.0986 58.4431 43.4952 58.2728C43.8917 58.1024 44.2503 57.8548 44.5501 57.5444L53.4421 48.6524C52.6348 44.7656 53.0761 40.723 54.7031 37.1019V37.1149Z" fill="#8730A5"/>
<path d="M31.5466 26.9551C32.1559 27.5646 32.4981 28.3911 32.4981 29.2528C32.4981 30.1146 32.1559 30.9411 31.5466 31.5506L20.8476 42.2561L31.5466 52.9551C31.857 53.2549 32.1046 53.6135 32.2749 54.01C32.4452 54.4065 32.5349 54.833 32.5386 55.2645C32.5424 55.6961 32.4602 56.124 32.2967 56.5234C32.1333 56.9229 31.892 57.2857 31.5869 57.5909C31.2817 57.896 30.9188 58.1374 30.5194 58.3008C30.12 58.4642 29.692 58.5464 29.2605 58.5427C28.829 58.5389 28.4025 58.4493 28.006 58.2789C27.6095 58.1086 27.2509 57.861 26.9511 57.5506L13.9511 44.5506C13.3418 43.9411 12.9995 43.1146 12.9995 42.2528C12.9995 41.3911 13.3418 40.5646 13.9511 39.9551L26.9511 26.9551C27.5605 26.3458 28.387 26.0035 29.2488 26.0035C30.1106 26.0035 30.9371 26.3458 31.5466 26.9551Z" fill="#8730A5"/>
<path d="M68.3883 42.7701L74.2383 32.6301C71.8014 32.1747 69.2839 32.4593 67.0101 33.4472C64.7363 34.4352 62.8104 36.0813 61.4804 38.1735C60.1504 40.2657 59.4772 42.7082 59.5476 45.1863C59.618 47.6645 60.4287 50.0648 61.8753 52.0781L51.1438 70.6681C50.5188 71.8519 50.3768 73.2319 50.7479 74.5181C51.1189 75.8043 51.9741 76.8967 53.1336 77.5657C54.2932 78.2346 55.6668 78.4281 56.9661 78.1055C58.2653 77.7829 59.3889 76.9693 60.1008 75.8356L70.8583 57.2131C73.3169 57.4351 75.7858 56.919 77.9496 55.731C80.1135 54.5429 81.874 52.7368 83.0064 50.5433C84.1387 48.3497 84.5914 45.8685 84.3067 43.4164C84.022 40.9643 83.0127 38.6528 81.4078 36.7771L75.5578 46.9106C75.2923 47.3933 74.933 47.8182 74.5011 48.1603C74.0692 48.5024 73.5734 48.7549 73.0427 48.903C72.512 49.051 71.9571 49.0916 71.4105 49.0225C70.8639 48.9533 70.3366 48.7758 69.8595 48.5002C69.3823 48.2247 68.965 47.8567 68.6319 47.4178C68.2989 46.9789 68.0567 46.478 67.9197 45.9443C67.7827 45.4107 67.7536 44.855 67.834 44.31C67.9145 43.7649 68.103 43.2414 68.3883 42.7701Z" fill="#8730A5"/>
</svg>
