<svg width="25" height="26" viewBox="0 0 25 26" fill="none" xmlns="http://www.w3.org/2000/svg">
<path d="M22.3214 0.75H2.67857C1.19978 0.75 0 1.92578 0 3.375V22.625C0 24.0742 1.19978 25.25 2.67857 25.25H22.3214C23.8002 25.25 25 24.0742 25 22.625V3.375C25 1.92578 23.8002 0.75 22.3214 0.75ZM19.5926 9.43437C19.6038 9.5875 19.6038 9.74609 19.6038 9.89922C19.6038 14.6406 15.9208 20.1039 9.19085 20.1039C7.11495 20.1039 5.18973 19.5133 3.57143 18.4961C3.86719 18.5289 4.15179 18.5398 4.45312 18.5398C6.16629 18.5398 7.73995 17.9711 8.99554 17.0086C7.38839 16.9758 6.03795 15.9422 5.57478 14.5203C6.13839 14.6023 6.64621 14.6023 7.22656 14.4547C5.55246 14.1211 4.29688 12.6773 4.29688 10.9328V10.8891C4.78237 11.157 5.35156 11.3211 5.94866 11.343C5.44667 11.0157 5.03515 10.5718 4.75082 10.0508C4.4665 9.52977 4.31821 8.94788 4.3192 8.35703C4.3192 7.68984 4.49777 7.07734 4.81585 6.54688C6.6183 8.72344 9.32478 10.1453 12.3605 10.2984C11.8415 7.86484 13.6998 5.89062 15.9319 5.89062C16.9866 5.89062 17.9353 6.32266 18.6049 7.02266C19.4308 6.86953 20.2232 6.56875 20.9263 6.15859C20.6529 6.98984 20.0781 7.68984 19.3192 8.13281C20.0558 8.05625 20.7701 7.85391 21.4286 7.575C20.9319 8.29141 20.3069 8.92578 19.5926 9.43437Z" fill="white"/>
</svg>
