<svg width="31" height="31" viewBox="0 0 31 31" fill="none" xmlns="http://www.w3.org/2000/svg">
<path fill-rule="evenodd" clip-rule="evenodd" d="M8.79821 23.3125C13.7894 22.5833 17.2259 22.646 22.2236 23.338C22.5856 23.3904 22.9163 23.5721 23.1547 23.8494C23.3931 24.1267 23.5232 24.4809 23.5208 24.8466C23.5208 25.1966 23.4005 25.5364 23.1832 25.8018C22.8045 26.2646 22.4165 26.7197 22.0195 27.1668H23.9452C24.0662 27.0225 24.188 26.8752 24.3112 26.7257C24.7437 26.1953 24.9797 25.5317 24.9791 24.8473C24.9791 23.3708 23.9014 22.0984 22.4234 21.8942C17.3076 21.1862 13.7318 21.1184 8.58748 21.8702C7.09415 22.0882 6.02081 23.3803 6.02081 24.867C6.02081 25.5269 6.23592 26.1795 6.64352 26.7082C6.76383 26.8642 6.88269 27.0173 7.00081 27.1676H8.87988C8.5105 26.7253 8.15021 26.2756 7.79925 25.8186C7.59068 25.545 7.47817 25.2103 7.47915 24.8663C7.47915 24.081 8.04352 23.4226 8.79821 23.3125Z" fill="white"/>
<path fill-rule="evenodd" clip-rule="evenodd" d="M15.5 16.2293C16.0745 16.2293 16.6434 16.1162 17.1742 15.8963C17.705 15.6764 18.1873 15.3542 18.5936 14.9479C18.9998 14.5417 19.3221 14.0594 19.542 13.5286C19.7618 12.9978 19.875 12.4289 19.875 11.8543C19.875 11.2798 19.7618 10.7109 19.542 10.1801C19.3221 9.64929 18.9998 9.16699 18.5936 8.76074C18.1873 8.35448 17.705 8.03222 17.1742 7.81236C16.6434 7.59249 16.0745 7.47933 15.5 7.47933C14.3397 7.47933 13.2269 7.94027 12.4064 8.76074C11.5859 9.58121 11.125 10.694 11.125 11.8543C11.125 13.0147 11.5859 14.1274 12.4064 14.9479C13.2269 15.7684 14.3397 16.2293 15.5 16.2293ZM15.5 17.6877C17.0471 17.6877 18.5308 17.0731 19.6248 15.9791C20.7187 14.8852 21.3333 13.4014 21.3333 11.8543C21.3333 10.3072 20.7187 8.8235 19.6248 7.72954C18.5308 6.63558 17.0471 6.021 15.5 6.021C13.9529 6.021 12.4692 6.63558 11.3752 7.72954C10.2812 8.8235 9.66666 10.3072 9.66666 11.8543C9.66666 13.4014 10.2812 14.8852 11.3752 15.9791C12.4692 17.0731 13.9529 17.6877 15.5 17.6877Z" fill="white"/>
<path fill-rule="evenodd" clip-rule="evenodd" d="M15.5 28.6251C22.7486 28.6251 28.625 22.7487 28.625 15.5001C28.625 8.25144 22.7486 2.37508 15.5 2.37508C8.25134 2.37508 2.37499 8.25144 2.37499 15.5001C2.37499 22.7487 8.25134 28.6251 15.5 28.6251ZM15.5 30.0834C23.5544 30.0834 30.0833 23.5545 30.0833 15.5001C30.0833 7.44571 23.5544 0.916748 15.5 0.916748C7.44562 0.916748 0.916656 7.44571 0.916656 15.5001C0.916656 23.5545 7.44562 30.0834 15.5 30.0834Z" fill="white"/>
</svg>
