<svg width="17" height="18" viewBox="0 0 17 18" fill="none" xmlns="http://www.w3.org/2000/svg">
<path d="M7.00099 -0.000942201C5.81852 -0.0042209 4.64715 0.227168 3.55474 0.679821C2.46233 1.13247 1.4706 1.79739 0.636993 2.63606L2.05099 4.05006C3.37299 2.72806 5.13099 1.99906 7.00099 1.99906C8.87099 1.99906 10.629 2.72806 11.951 4.05006C13.273 5.37206 14.002 7.13006 14.002 9.00006C14.002 10.8701 13.273 12.6281 11.951 13.9501C10.629 15.2721 8.87099 16.0011 7.00099 16.0011C5.13099 16.0011 3.37299 15.2721 2.05099 13.9501L0.636993 15.3641C2.33599 17.0641 4.59599 18.0011 7.00099 18.0011C9.40599 18.0011 11.666 17.0641 13.365 15.3641C15.065 13.6651 16.002 11.4051 16.002 9.00006C16.002 6.59506 15.065 4.33506 13.365 2.63606C12.5314 1.79739 11.5397 1.13247 10.4472 0.679821C9.35484 0.227168 8.18347 -0.0042209 7.00099 -0.000942201Z" fill="#AB0071"/>
</svg>
